:SAMPLES-PER-SECOND 30
:FULLY-SPECIFIED
:DEGREES
628
root  61.4431 35.0175 57.2644 -172.411 19.247 -176.066
LeftUpLeg  -22.9813 9.02328 8.46467
LeftLeg  62.2526 -8.57073 -13.7163
LeftFoot  0.54498 0.000159167 -0.0334767
LeftToes  -38.9294 1.61378e-006 8.80029e-008
Spine  4.56198 -0.343864 -1.43211
Spine1  8.57159 0.191116 -4.24531
RightShoulder  0.0890741 -9.9888 -14.1196
RightArm  -54.2124 36.1801 29.8224
RightForeArm  11.7124 41.9911 9.13667
RightHand  -1.42686 -14.5433 11.5126
LeftShoulder1  -0.0030957 -3.40363 -0.364135
LeftArm  -39.224 15.8001 -70.4811
LeftForeArm  34.4469 -27.426 -5.23801
LeftHand  0.00752368 0.0771529 9.88262
HEad  10.5983 -37.9213 5.74905
RightUpLeg  -16.9572 -6.10851 5.86048
RightLeg  15.3441 19.9026 4.02699
RightFoot  6.51639 -0.116348 2.42086
RightToes  -13.7485 -0.0494179 -0.124759
629
root  61.0601 34.9962 56.2967 -172.925 18.1661 -176.173
LeftUpLeg  -23.5253 9.24807 11.1209
LeftLeg  54.1142 -3.83414 -4.63499
LeftFoot  -0.886396 0.00143272 0.185206
LeftToes  -30.2301 1.61378e-006 8.80029e-008
Spine  4.55379 -0.558578 -1.67418
Spine1  8.50954 -0.218646 -4.74301
RightShoulder  0.0936606 -9.79635 -13.6723
RightArm  -50.5205 37.2332 29.283
RightForeArm  9.1235 45.34 10.2853
RightHand  -1.32795 -14.7173 10.6211
LeftShoulder1  -0.00251062 -3.59055 -0.763143
LeftArm  -41.045 14.913 -69.4074
LeftForeArm  32.241 -26.3244 -4.99441
LeftHand  0.0779379 0.814177 10.4769
HEad  9.82861 -35.6327 5.88837
RightUpLeg  -14.538 -3.73288 4.32335
RightLeg  14.1189 16.107 2.93079
RightFoot  4.94484 -0.0467786 1.46068
RightToes  -16.9165 -0.0649449 -0.15158
630
root  60.5952 34.972 55.3684 -173.014 17.1173 -176.023
LeftUpLeg  -23.1473 8.64131 14.1129
LeftLeg  43.6603 1.15387 0.961287
LeftFoot  -1.40037 0.00022078 0.0180562
LeftToes  -20.6529 1.61378e-006 8.80029e-008
Spine  4.37711 -0.636261 -1.84155
Spine1  8.14411 -0.410001 -4.99417
RightShoulder  0.0952135 -9.90199 -13.2935
RightArm  -47.6052 37.8102 29.922
RightForeArm  8.11122 48.4449 11.4852
RightHand  -1.42788 -14.6868 11.411
LeftShoulder1  -0.00194316 -3.78263 -1.13596
LeftArm  -41.8156 13.6887 -68.5218
LeftForeArm  32.0856 -24.6777 -4.63668
LeftHand  0.0920774 1.03613 9.72148
HEad  9.46055 -33.9747 6.28675
RightUpLeg  -12.7977 -3.93688 3.22288
RightLeg  13.5363 15.0335 2.58459
RightFoot  3.66487 -0.0187479 1.00773
RightToes  -19.3427 -0.0778249 -0.171516
631
root  60.009 34.9294 54.459 -172.659 17.2119 -175.329
LeftUpLeg  -21.3095 7.37861 17.4931
LeftLeg  30.4527 4.0853 2.05463
LeftFoot  0.737403 -0.000571642 0.0888226
LeftToes  -18.3225 1.61378e-006 8.80029e-008
Spine  4.16627 -0.405694 -1.82113
Spine1  7.72656 0.00982629 -4.8546
RightShoulder  0.0949386 -10.0079 -12.7424
RightArm  -44.4953 38.1039 31.9444
RightForeArm  8.53513 52.0424 13.085
RightHand  -1.49678 -14.1495 12.3811
LeftShoulder1  -0.00112867 -3.66303 -1.45299
LeftArm  -41.553 12.737 -68.5148
LeftForeArm  32.8014 -24.1155 -4.51626
LeftHand  0.0784597 0.921898 9.28916
HEad  8.93941 -32.0702 6.90863
RightUpLeg  -11.565 -4.79886 2.43538
RightLeg  13.215 15.8854 2.63714
RightFoot  2.919 -0.0121408 0.85385
RightToes  -22.1775 -0.0939269 -0.194095
632
root  59.2835 34.8072 53.5728 -171.912 18.2478 -173.754
LeftUpLeg  -18.851 5.03457 21.5667
LeftLeg  16.9459 2.07526 0.487097
LeftFoot  9.83174 -0.0347945 0.404533
LeftToes  -20.0936 1.61378e-006 8.80029e-008
Spine  3.9813 -0.0493467 -1.35435
Spine1  7.38613 0.703486 -3.90234
RightShoulder  0.0915168 -10.1135 -12.0778
RightArm  -39.9566 39.5938 35.2688
RightForeArm  4.08592 54.0812 14.1064
RightHand  -1.50858 -14.5616 12.1315
LeftShoulder1  0.000197483 -3.43665 -1.77103
LeftArm  -40.1177 12.8887 -69.5437
LeftForeArm  32.1241 -25.6445 -4.8455
LeftHand  0.0722567 0.837673 9.41218
HEad  8.139 -29.5052 7.05676
RightUpLeg  -10.6883 -5.83332 2.15546
RightLeg  13.0727 18.0501 2.94021
RightFoot  2.29266 -0.00808297 0.773457
RightToes  -24.7007 -0.109183 -0.213501
633
root  58.4228 34.6447 52.6761 -171.076 19.8823 -172.828
LeftUpLeg  -16.2036 0.113192 24.9375
LeftLeg  5.71888 -3.03813 -0.10867
LeftFoot  25.7163 0.284329 -1.24559
LeftToes  -32.3596 1.61378e-006 8.80029e-008
Spine  3.6981 0.10864 -1.00314
Spine1  6.90808 0.927562 -3.03155
RightShoulder  0.0819508 -9.54156 -11.4051
RightArm  -34.0568 42.1198 40.1545
RightForeArm  7.4495 56.1801 15.2924
RightHand  -0.924116 -13.6174 8.09448
LeftShoulder1  0.00229994 -3.17765 -2.07168
LeftArm  -38.1435 13.8526 -70.7489
LeftForeArm  31.1853 -27.082 -5.16328
LeftHand  0.0818596 0.997232 8.95306
HEad  7.27726 -26.296 6.47068
RightUpLeg  -9.85371 -5.13788 0.887877
RightLeg  12.0282 19.1435 2.76204
RightFoot  2.00021 -0.00516983 0.719891
RightToes  -29.0139 -0.13719 -0.245055
634
root  57.3915 34.4244 51.7399 -170.717 23.0329 -172.62
LeftUpLeg  -13.8629 -1.6258 25.2887
LeftLeg  4.27581 -4.87322 -0.0509561
LeftFoot  23.1309 0.380076 -1.85712
LeftToes  -42.4463 1.61378e-006 8.80029e-008
Spine  3.47912 0.567451 -0.820143
Spine1  6.55188 1.73229 -2.40998
RightShoulder  0.069233 -9.33635 -10.726
RightArm  -26.9666 45.3282 47.896
RightForeArm  18.0792 57.8624 16.36
RightHand  -0.198993 -11.1562 2.40591
LeftShoulder1  0.00544334 -2.53758 -2.69489
LeftArm  -34.9521 14.4116 -71.7194
LeftForeArm  30.7404 -27.264 -5.2043
LeftHand  0.0899447 1.21171 8.07404
HEad  6.21203 -22.8959 5.33168
RightUpLeg  -8.77226 -1.43377 -1.52068
RightLeg  10.1963 18.4756 2.07966
RightFoot  1.87496 -0.000913673 0.647092
RightToes  -33.9592 -0.172113 -0.27852
635
root  56.2656 34.2342 50.9145 -171.179 26.5637 -173.316
LeftUpLeg  -13.7757 3.1708 22.1014
LeftLeg  9.69139 -6.58903 -0.693204
LeftFoot  15.061 0.222381 -1.68212
LeftToes  -40.9016 1.61378e-006 8.80029e-008
Spine  3.33806 1.15216 -0.963695
Spine1  6.24539 2.88458 -2.57261
RightShoulder  0.0665996 -8.36905 -9.92413
RightArm  -18.7667 45.5317 57.5418
RightForeArm  30.9789 60.8789 18.5412
RightHand  0.262401 -10.3428 -2.52714
LeftShoulder1  0.0116038 -1.93561 -3.52238
LeftArm  -31.1345 14.1533 -71.7533
LeftForeArm  30.8396 -25.3346 -4.77901
LeftHand  0.0737355 1.14193 6.97645
HEad  5.82965 -20.1127 5.05054
RightUpLeg  -8.1344 3.52843 -4.83911
RightLeg  9.00993 16.6319 1.53508
RightFoot  2.11172 -0.0023272 0.656454
RightToes  -38.3485 -0.205426 -0.305604
636
root  55.165 34.1616 50.2718 -171.754 28.3224 -174.733
LeftUpLeg  -14.8939 6.24182 18.3938
LeftLeg  13.75 -7.62558 -1.3513
LeftFoot  10.3712 0.123638 -1.36229
LeftToes  -37.4801 1.61378e-006 8.80029e-008
Spine  3.39853 1.3274 -1.24387
Spine1  6.31412 3.24955 -3.07407
RightShoulder  0.0665363 -7.22615 -7.98308
RightArm  -9.56168 42.3897 64.3962
RightForeArm  42.6091 66.1063 23.5966
RightHand  0.820146 -10.6244 -8.4281
LeftShoulder1  0.0170787 -1.44042 -5.22524
LeftArm  -27.23 12.2421 -70.3043
LeftForeArm  31.531 -22.1687 -4.11012
LeftHand  0.0568825 1.02289 5.95533
HEad  4.38129 -18.7705 5.60796
RightUpLeg  -8.29447 6.70015 -8.2339
RightLeg  8.67616 13.7462 1.19402
RightFoot  2.83351 -0.00871464 0.729727
RightToes  -40.3105 -0.220968 -0.316869
637
root  54.1852 34.2458 49.7989 -172.059 30.0467 -176.005
LeftUpLeg  -15.3694 4.40528 15.4752
LeftLeg  15.3499 -3.98237 -0.823468
LeftFoot  8.46376 0.0416102 -0.562345
LeftToes  -34.9228 1.61378e-006 8.80029e-008
Spine  3.63701 1.70314 -1.59239
Spine1  6.71078 4.01497 -3.69109
RightShoulder  0.0680007 -4.98902 -5.57801
RightArm  -1.59457 36.5991 67.3751
RightForeArm  47.715 70.1609 29.4747
RightHand  0.95031 -7.54024 -13.9642
LeftShoulder1  0.0283014 -1.61787 -6.95566
LeftArm  -24.9837 9.25184 -68.1869
LeftForeArm  32.7246 -18.0183 -3.27846
LeftHand  0.0425175 0.922092 4.87327
HEad  2.15552 -17.6002 5.8188
RightUpLeg  -10.0881 4.50862 -10.0185
RightLeg  11.3441 9.08916 1.21991
RightFoot  4.46595 -0.0159263 0.785868
RightToes  -41.0466 -0.226898 -0.320958
638
root  53.3582 34.4661 49.3998 -171.762 32.5737 -176.115
LeftUpLeg  -15.3872 4.2384 13.8891
LeftLeg  16.3788 -1.70789 -0.38665
LeftFoot  7.68435 0.0140393 -0.209053
LeftToes  -33.0296 1.61378e-006 8.80029e-008
Spine  3.83254 2.36943 -1.73313
Spine1  7.05712 5.27526 -3.74974
RightShoulder  0.0680883 -2.56118 -3.21884
RightArm  5.81043 30.0123 69.6003
RightForeArm  43.1837 70.5224 30.1356
RightHand  0.500898 -3.63354 -15.2955
LeftShoulder1  0.0526685 -2.06039 -7.82391
LeftArm  -24.4786 7.04696 -66.7106
LeftForeArm  33.2778 -15.8336 -2.85754
LeftHand  0.0550772 1.56106 3.65484
HEad  0.404667 -15.5759 4.39375
RightUpLeg  -11.975 2.23918 -9.72988
RightLeg  13.3725 2.51902 0.430927
RightFoot  6.74595 -0.00121316 0.398091
RightToes  -36.8485 -0.19381 -0.296637
639
root  52.5956 34.6407 49.0001 -171.25 35.0952 -175.575
LeftUpLeg  -14.5218 6.25449 12.6719
LeftLeg  15.5538 -1.14926 -0.2434
LeftFoot  7.2 0.00646482 -0.126341
LeftToes  -31.0687 1.61378e-006 8.80029e-008
Spine  3.82425 2.93089 -1.66148
Spine1  7.10149 6.31323 -3.46456
RightShoulder  0.0643319 -1.08694 -1.34034
RightArm  12.527 24.0331 72.1599
RightForeArm  42.0871 67.2554 25.0338
RightHand  0.456811 -4.60609 -10.9361
LeftShoulder1  0.0489422 -1.6914 -7.71647
LeftArm  -25.845 5.77541 -66.3498
LeftForeArm  34.1675 -14.3415 -2.57516
LeftHand  0.0824406 2.45472 3.46671
HEad  -0.424544 -12.6739 2.00408
RightUpLeg  -13.475 -2.8198 -8.0199
RightLeg  14.4631 -3.32233 -0.631136
RightFoot  9.18302 0.0656271 -0.439586
RightToes  -33.2008 -0.166572 -0.273586
640
root  51.9308 34.7644 48.6551 -170.576 36.8385 -175.868
LeftUpLeg  -13.7776 8.44487 10.9339
LeftLeg  12.9772 -1.5397 -0.253483
LeftFoot  7.54517 0.00894956 -0.194058
LeftToes  -30.7826 1.61378e-006 8.80029e-008
Spine  3.56413 2.97637 -1.72851
Spine1  6.66713 6.27285 -3.42265
RightShoulder  0.0561165 0.533504 -0.666943
RightArm  16.2875 17.7265 75.2159
RightForeArm  39.4291 61.2013 18.7958
RightHand  0.255906 -4.37007 -6.31997
LeftShoulder1  0.0480621 -1.13416 -7.93744
LeftArm  -28.0609 5.56484 -65.3253
LeftForeArm  34.9061 -13.7585 -2.46557
LeftHand  0.121324 2.89339 4.42058
HEad  -0.863716 -9.69875 -0.453005
RightUpLeg  -15.5903 -9.02586 -6.49309
RightLeg  15.7233 -6.51865 -1.38557
RightFoot  11.1923 0.155753 -1.21185
RightToes  -34.3713 -0.175151 -0.28117
641
root  51.3443 34.8404 48.3542 -170.105 37.6327 -176.378
LeftUpLeg  -12.9106 8.94471 9.33271
LeftLeg  9.63075 -1.30024 -0.13659
LeftFoot  8.39386 0.0070882 -0.188498
LeftToes  -31.8739 1.61378e-006 8.80029e-008
Spine  3.3446 2.72497 -1.84484
Spine1  6.28719 5.65648 -3.5006
RightShoulder  0.0508977 1.99956 0.493326
RightArm  16.8801 11.3391 77.0302
RightForeArm  36.8122 52.9628 13.5503
RightHand  0.146095 -3.17328 -4.89049
LeftShoulder1  0.0484696 -0.406705 -8.77064
LeftArm  -29.4999 5.47962 -63.4091
LeftForeArm  34.1863 -13.7705 -2.46842
LeftHand  0.145706 2.72698 5.73126
HEad  -2.1559 -7.08711 -2.28768
RightUpLeg  -16.9332 -11.6952 -5.84042
RightLeg  16.4917 -4.42394 -1.00398
RightFoot  11.1799 0.116118 -0.808767
RightToes  -35.2347 -0.181579 -0.286652
